<mxfile host="app.diagrams.net" modified="2023-10-25T04:31:43.421Z" agent="Mozilla/5.0 (Windows NT 10.0; Win64; x64) AppleWebKit/537.36 (KHTML, like Gecko) Chrome/118.0.0.0 Safari/537.36 Edg/118.0.2088.61" version="21.8.2" etag="T7Fhb8gLGXd7onmZsWkI" type="github">
  <diagram name="Page-1" id="9uaKyw1pJLppzGBnEIwb">
    <mxGraphModel>
      <root>
        <mxCell id="0" />
        <mxCell id="1" parent="0" />
      </root>
    </mxGraphModel>
  </diagram>
</mxfile>
